<svg width="80" height="80" viewBox="0 0 80 80" fill="none" xmlns="http://www.w3.org/2000/svg">
<rect width="80" height="80" rx="16" fill="#CADFFF"/>
<rect x="16" y="16" width="48" height="48" rx="8" fill="#2B7FFF"/>
<path d="M28.7797 42.4541H34.4087M28.7797 35.2728H49.039M36.7268 44.6369V51.2166M43.5846 38.9087C43.5846 32.8838 41.4912 27.9999 38.9091 27.9999C36.327 27.9999 34.2341 32.8838 34.2341 38.9087C34.2341 40.1496 34.323 41.3425 34.4867 42.4541" stroke="white" stroke-width="1.5" stroke-linecap="round" stroke-linejoin="round"/>
<path d="M49.6959 40.545C49.7766 40.0105 49.8172 39.465 49.8175 38.9087C49.8175 32.8838 44.9337 27.9999 38.9087 27.9999C32.8838 27.9999 27.9999 32.8838 27.9999 38.9087C27.9999 43.168 30.4408 46.8569 33.9998 48.653" stroke="white" stroke-width="1.5" stroke-linecap="round" stroke-linejoin="round"/>
<path d="M37.2746 45.4313C36.5416 45.1008 36.5416 44.1741 37.2746 43.8436C38.1031 43.4721 38.9385 43.1162 39.7804 42.7761C41.4794 42.0861 42.7056 41.6427 43.4599 41.3853C44.0448 41.1847 44.6799 41.1847 45.2648 41.3853C46.0186 41.6427 47.2447 42.0861 48.9438 42.7761C49.7857 43.1164 50.6213 43.4723 51.4501 43.8436C52.1832 44.1741 52.1832 45.1008 51.4501 45.4313C50.6214 45.8028 49.7858 46.1587 48.9438 46.4988C47.2453 47.1887 46.0186 47.6322 45.2648 47.8896C44.6797 48.0904 44.0444 48.0904 43.4594 47.8896C42.7061 47.6322 41.4794 47.1887 39.7804 46.4988C38.9383 46.1587 38.1028 45.8028 37.2741 45.4313" stroke="white" stroke-width="1.5" stroke-linecap="round" stroke-linejoin="round"/>
<path d="M39.7269 46.4761V48.1599C39.7269 49.0261 39.7624 49.6381 39.8049 50.0602C39.8605 50.6177 40.1758 51.0927 40.6869 51.3218C41.3785 51.6327 42.5752 52.0004 44.3631 52.0004C46.1511 52.0004 47.3478 51.6322 48.0394 51.3218C48.55 51.0927 48.8658 50.6177 48.9214 50.0602C48.9639 49.6381 48.9994 49.0261 48.9994 48.1599V46.4761" stroke="white" stroke-width="1.5" stroke-linecap="round" stroke-linejoin="round"/>
</svg>
