<svg width="80" height="80" viewBox="0 0 80 80" fill="none" xmlns="http://www.w3.org/2000/svg">
<rect width="80" height="80" rx="16" fill="#FFCACA"/>
<rect x="16" y="16" width="48" height="48" rx="8" fill="#FF2B2B"/>
<path d="M46.8571 31.5H33.1429C32.6882 31.5 32.2522 31.6791 31.9307 31.9979C31.6092 32.3167 31.4286 32.7491 31.4286 33.2V46.8C31.4286 47.2509 31.6092 47.6833 31.9307 48.0021C32.2522 48.3209 32.6882 48.5 33.1429 48.5H46.8571C47.3118 48.5 47.7478 48.3209 48.0693 48.0021C48.3908 47.6833 48.5714 47.2509 48.5714 46.8V33.2C48.5714 32.7491 48.3908 32.3167 48.0693 31.9979C47.7478 31.6791 47.3118 31.5 46.8571 31.5ZM46.8571 46.8H33.1429V33.2H46.8571V46.8ZM52 32.35V47.65C52 47.8754 51.9097 48.0916 51.7489 48.251C51.5882 48.4104 51.3702 48.5 51.1429 48.5C50.9155 48.5 50.6975 48.4104 50.5368 48.251C50.376 48.0916 50.2857 47.8754 50.2857 47.65V32.35C50.2857 32.1246 50.376 31.9084 50.5368 31.749C50.6975 31.5896 50.9155 31.5 51.1429 31.5C51.3702 31.5 51.5882 31.5896 51.7489 31.749C51.9097 31.9084 52 32.1246 52 32.35ZM29.7143 32.35V47.65C29.7143 47.8754 29.624 48.0916 29.4632 48.251C29.3025 48.4104 29.0845 48.5 28.8571 48.5C28.6298 48.5 28.4118 48.4104 28.2511 48.251C28.0903 48.0916 28 47.8754 28 47.65V32.35C28 32.1246 28.0903 31.9084 28.2511 31.749C28.4118 31.5896 28.6298 31.5 28.8571 31.5C29.0845 31.5 29.3025 31.5896 29.4632 31.749C29.624 31.9084 29.7143 32.1246 29.7143 32.35Z" fill="white"/>
</svg>
