<svg width="80" height="80" viewBox="0 0 80 80" fill="none" xmlns="http://www.w3.org/2000/svg">
<rect width="80" height="80" rx="16" fill="#BFEEE9"/>
<rect x="16" y="16" width="48" height="48" rx="8" fill="#00BBA7"/>
<path d="M28 32.0001C28 30.9392 28.4214 29.9218 29.1716 29.1716C29.9217 28.4214 30.9392 28 32 28H43.2001C44.261 28 45.2784 28.4214 46.0285 29.1716C46.7787 29.9218 47.2001 30.9392 47.2001 32.0001V34.4482C46.6687 34.3866 46.132 34.3845 45.6001 34.4418V34.4002H29.6V43.2005C29.6 43.837 29.8529 44.4475 30.303 44.8976C30.753 45.3477 31.3635 45.6005 32 45.6005H36.7264L35.5744 46.7526C35.4345 46.8921 35.3051 47.0419 35.1872 47.2006H32C30.9392 47.2006 29.9217 46.7791 29.1716 46.029C28.4214 45.2788 28 44.2614 28 43.2005V32.0001ZM40.6897 37.1587L39.7665 36.2338C39.6921 36.1595 39.6038 36.1005 39.5066 36.0602C39.4094 36.0199 39.3053 35.9992 39.2001 35.9992C39.0949 35.9992 38.9907 36.0199 38.8935 36.0602C38.7963 36.1005 38.708 36.1595 38.6337 36.2338C38.5593 36.3082 38.5003 36.3965 38.46 36.4937C38.4198 36.5909 38.399 36.6951 38.399 36.8003C38.399 36.9055 38.4198 37.0096 38.46 37.1068C38.5003 37.204 38.5593 37.2923 38.6337 37.3667L39.8257 38.5571C40.0561 38.0654 40.3441 37.5992 40.6897 37.1587ZM29.6 32.8001H45.6001V32.0001C45.6001 31.3636 45.3472 30.7531 44.8972 30.303C44.4471 29.8529 43.8366 29.6 43.2001 29.6H32C31.3635 29.6 30.753 29.8529 30.303 30.303C29.8529 30.7531 29.6 31.3636 29.6 32.0001V32.8001ZM36.5664 37.3667C36.6408 37.2923 36.6998 37.204 36.7401 37.1068C36.7803 37.0096 36.8011 36.9055 36.8011 36.8003C36.8011 36.6951 36.7803 36.5909 36.7401 36.4937C36.6998 36.3965 36.6408 36.3082 36.5664 36.2338C36.4921 36.1595 36.4038 36.1005 36.3066 36.0602C36.2094 36.0199 36.1052 35.9992 36 35.9992C35.8949 35.9992 35.7907 36.0199 35.6935 36.0602C35.5963 36.1005 35.508 36.1595 35.4336 36.2338L32.2336 39.4339C32.1591 39.5083 32.1 39.5965 32.0597 39.6937C32.0194 39.7909 31.9986 39.8951 31.9986 40.0004C31.9986 40.1056 32.0194 40.2098 32.0597 40.307C32.1 40.4042 32.1591 40.4925 32.2336 40.5668L35.4336 43.7669C35.5839 43.9171 35.7876 44.0015 36 44.0015C36.2125 44.0015 36.4162 43.9171 36.5664 43.7669C36.7167 43.6166 36.8011 43.4129 36.8011 43.2005C36.8011 42.988 36.7167 42.7843 36.5664 42.634L33.9312 40.0004L36.5664 37.3667ZM47.0273 36.0386C47.6129 36.1058 47.7809 36.8067 47.3633 37.2259L45.8033 38.7859C45.5793 39.0099 45.4016 39.2758 45.2804 39.5685C45.1592 39.8611 45.0968 40.1748 45.0968 40.4916C45.0968 40.8083 45.1592 41.122 45.2804 41.4147C45.4016 41.7073 45.5793 41.9732 45.8033 42.1972C46.0273 42.4212 46.2932 42.5989 46.5858 42.7201C46.8785 42.8413 47.1922 42.9037 47.5089 42.9037C47.8257 42.9037 48.1393 42.8413 48.432 42.7201C48.7246 42.5989 48.9905 42.4212 49.2145 42.1972L50.7745 40.6372C51.1921 40.2196 51.8945 40.3876 51.9617 40.9732C52.0732 41.9241 51.9402 42.8877 51.5755 43.7729C51.2107 44.6581 50.6262 45.4357 49.8772 46.032C49.1283 46.6284 48.2395 47.0238 47.2951 47.181C46.3507 47.3382 45.3818 47.2518 44.4801 46.9302L40.1185 51.2935C39.8945 51.5175 39.6286 51.6952 39.3359 51.8164C39.0433 51.9376 38.7296 52 38.4129 52C38.0961 52 37.7824 51.9376 37.4898 51.8164C37.1971 51.6952 36.9312 51.5175 36.7072 51.2935C36.4833 51.0695 36.3056 50.8036 36.1844 50.5109C36.0632 50.2183 36.0008 49.9046 36.0008 49.5878C36.0008 49.2711 36.0632 48.9574 36.1844 48.6648C36.3056 48.3721 36.4833 48.1062 36.7072 47.8822L41.0689 43.5205C40.7471 42.6186 40.6608 41.6495 40.818 40.7049C40.9753 39.7603 41.3708 38.8715 41.9674 38.1224C42.5639 37.3734 43.3417 36.7889 44.2271 36.4242C45.1125 36.0596 46.0763 35.9269 47.0273 36.0386Z" fill="white"/>
</svg>
